<?xml version="1.0" encoding="UTF-8"?>
<svg width="68.53" height="92.34" version="1.1" viewBox="0 0 168.53 192.34" xmlns="http://www.w3.org/2000/svg">
 <rect x="-40.324" y="-19.221" width="256" height="256" fill="none"/>
 <g transform="rotate(-45.646 108.98 181.62)" fill="none" stroke="#000" stroke-linecap="round" stroke-linejoin="round" stroke-width="8">
  <path d="m195.9 105.4-67.9 67.9-45.3-45.3 67.9-67.9c25.7-25.7 51.4-25.4 62.4-23.8a7.8 7.8 0 0 1 6.7 6.7c1.6 11 1.9 36.7-23.8 62.4z"/>
  <path d="m184.6 116.7v64.6a8 8 0 0 1-2.4 5.6l-32.3 32.4a8 8 0 0 1-13.5-4.1l-8.4-41.9"/>
  <path d="m139.3 71.4h-64.6a8 8 0 0 0-5.6 2.4l-32.4 32.3a8 8 0 0 0 4.1 13.5l41.9 8.4"/>
 </g>
 <g transform="matrix(.54789 0 0 .54789 64.188 69.627)">
  <path d="m60.7 22.7c0.2 5.1-1.2 9.8-3.7 13.8-0.9 1.4-3 0.7-2.9-0.9v-0.1c0-13.1-10.7-23.8-23.8-23.8-4.5 0-8.7 1.3-12.3 3.5-1.4 0.8-3-0.7-2.3-2.1 4.1-8.2 12.8-13.6 22.6-13.1 12.1 0.7 21.9 10.6 22.4 22.7zm9.3 36.9c5.4-8.3 5-18.5 0-26.1-0.9-1.3-3-0.7-2.9 0.9 0.1 4.2-0.9 8.5-3.2 12.4-6.6 11.4-21.2 15.3-32.5 8.7-1.4-0.8-3 0.7-2.3 2.1 2.2 4.2 5.6 7.7 10.1 10.1 10.7 5.5 24.2 2 30.8-8.1zm-67.5-2.4c4.5 8.8 13.5 13.6 22.6 13 1.6-0.1 2.1-2.2 0.7-3-3.7-2-6.9-5-9.2-9-6.6-11.4-2.7-26 8.7-32.5 1.4-0.8 0.9-2.9-0.7-3-4.7-0.2-9.5 1-13.8 3.7-10.1 6.6-13.7 20-8.3 30.8z"/>
 </g>
</svg>
