<?xml version="1.0" encoding="UTF-8"?>
<svg xmlns="http://www.w3.org/2000/svg" xmlns:xlink="http://www.w3.org/1999/xlink" width="50px" height="86px" viewBox="0 0 50 85" version="1.1">
<g id="surface1">
<path style="fill-rule:evenodd;fill:rgb(92.54902%,92.54902%,92.54902%);fill-opacity:1;stroke-width:10;stroke-linecap:butt;stroke-linejoin:miter;stroke:rgb(0%,0%,0%);stroke-opacity:1;stroke-miterlimit:4;" d="M 212.777532 5.003057 C 181.976438 29.50053 -54.689109 234.891568 124.564876 628.225806 L 303.81886 628.225806 C 483.107766 234.891568 246.44222 29.535778 215.641126 5.038306 Z M 212.777532 5.003057 " transform="matrix(0.111857,0,0,0.110821,1.011881,1.121336)"/>
<path style=" stroke:none;fill-rule:nonzero;fill:rgb(80%,80%,80%);fill-opacity:1;" d="M 25.640625 29.894531 C 21.46875 29.894531 18.078125 33.261719 18.078125 37.394531 C 18.078125 41.527344 21.46875 44.886719 25.640625 44.886719 C 29.8125 44.886719 33.210938 41.527344 33.210938 37.394531 C 33.210938 33.261719 29.8125 29.894531 25.640625 29.894531 Z M 25.640625 30.78125 C 29.328125 30.78125 32.316406 33.742188 32.316406 37.394531 C 32.316406 41.046875 29.328125 44 25.640625 44 C 21.953125 44 18.972656 41.046875 18.972656 37.394531 C 18.972656 33.742188 21.953125 30.78125 25.640625 30.78125 Z M 25.640625 30.78125 "/>
<path style="fill-rule:evenodd;fill:rgb(100%,0%,0%);fill-opacity:1;stroke-width:1;stroke-linecap:butt;stroke-linejoin:miter;stroke:rgb(0%,0%,0%);stroke-opacity:1;stroke-miterlimit:4;" d="M 93.414563 166.474886 L 136.857376 86.673048 L 197.481751 17.974381 L 214.628391 4.862065 L 279.303704 72.538535 L 329.800735 154.349519 L 333.851673 171.515374 L 92.401829 170.528425 " transform="matrix(0.111857,0,0,0.110821,1.011881,1.121336)"/>
<path style="fill-rule:evenodd;fill:rgb(100%,0%,0%);fill-opacity:1;stroke-width:10;stroke-linecap:butt;stroke-linejoin:miter;stroke:rgb(0%,0%,0%);stroke-opacity:1;stroke-miterlimit:4;" d="M 69.178782 470.52553 C 69.178782 470.52553 -37.891687 469.221348 26.748704 741.26666 C 26.748704 741.26666 32.82511 514.092258 89.363626 542.114546 " transform="matrix(0.111857,0,0,0.110821,1.011881,1.121336)"/>
<path style="fill-rule:evenodd;fill:rgb(100%,0%,0%);fill-opacity:1;stroke-width:10;stroke-linecap:butt;stroke-linejoin:miter;stroke:rgb(0%,0%,0%);stroke-opacity:1;stroke-miterlimit:4;" d="M 359.554173 470.52553 C 359.554173 470.52553 466.624641 469.221348 401.984251 741.26666 C 401.984251 741.26666 395.907845 514.092258 339.334407 542.114546 " transform="matrix(0.111857,0,0,0.110821,1.011881,1.121336)"/>
<path style="fill-rule:evenodd;fill:rgb(70.196078%,70.196078%,70.196078%);fill-opacity:1;stroke-width:1;stroke-linecap:butt;stroke-linejoin:miter;stroke:rgb(0%,0%,0%);stroke-opacity:1;stroke-miterlimit:4;" d="M 98.478235 572.568958 L 124.739485 628.120061 L 304.55222 627.097864 L 325.749798 572.568958 Z M 98.478235 572.568958 " transform="matrix(0.111857,0,0,0.110821,1.011881,1.121336)"/>
<path style=" stroke:none;fill-rule:evenodd;fill:rgb(82.352941%,0%,0%);fill-opacity:1;" d="M 44.003906 56.289062 L 41.742188 61.886719 L 40.386719 60.765625 L 38.804688 61.4375 L 40.953125 53.042969 L 44.792969 54.945312 C 44.792969 54.945312 51.460938 59.535156 46.261719 82.375 C 49.3125 58.753906 43.890625 56.289062 44.003906 56.289062 Z M 44.003906 56.289062 "/>
<path style=" stroke:none;fill-rule:evenodd;fill:rgb(82.352941%,0%,0%);fill-opacity:1;" d="M 3.664062 82.933594 C 3.664062 82.933594 2.539062 58.511719 10.21875 58.417969 C 11.066406 58.40625 11.007812 61.105469 11.007812 61.105469 L 7.957031 61.777344 L 5.585938 69.164062 Z M 3.664062 82.933594 "/>
<path style=" stroke:none;fill-rule:evenodd;fill:rgb(60%,60%,60%);fill-opacity:1;" d="M 30.082031 64.574219 C 30.535156 65.925781 30.800781 67.816406 30.671875 70.507812 C 30.765625 70.539062 30.871094 70.585938 30.976562 70.640625 L 35.074219 70.617188 L 36.988281 65.75 C 36.910156 65.332031 36.820312 64.960938 36.734375 64.574219 Z M 30.082031 64.574219 "/>
<path style=" stroke:none;fill-rule:evenodd;fill:rgb(80%,80%,80%);fill-opacity:1;" d="M 27.167969 52.753906 C 26.40625 52.699219 25.925781 52.816406 25.925781 52.816406 L 25.359375 61.4375 C 25.359375 61.4375 28.082031 60.90625 29.363281 64.574219 L 36.035156 64.574219 C 33.867188 54.566406 29.359375 52.914062 27.167969 52.753906 Z M 27.167969 52.753906 "/>
<path style=" stroke:none;fill-rule:evenodd;fill:rgb(80%,80%,80%);fill-opacity:1;" d="M 12.34375 65.074219 L 14.582031 70.617188 L 17.714844 70.839844 L 16.820312 64.519531 Z M 12.34375 65.074219 "/>
<path style="fill:none;stroke-width:10;stroke-linecap:butt;stroke-linejoin:miter;stroke:rgb(0%,0%,0%);stroke-opacity:1;stroke-miterlimit:4;" d="M 212.777532 5.003057 C 181.976438 29.50053 -54.689109 234.891568 124.564876 628.225806 L 303.81886 628.225806 C 483.107766 234.891568 246.44222 29.535778 215.641126 5.038306 Z M 212.777532 5.003057 " transform="matrix(0.111857,0,0,0.110821,1.011881,1.121336)"/>
<path style="fill:none;stroke-width:10;stroke-linecap:butt;stroke-linejoin:miter;stroke:rgb(0%,0%,0%);stroke-opacity:1;stroke-miterlimit:4;" d="M 93.414563 168.484032 L 330.81347 168.484032 " transform="matrix(0.111857,0,0,0.110821,1.011881,1.121336)"/>
<path style="fill-rule:nonzero;fill:rgb(70.196078%,70.196078%,70.196078%);fill-opacity:1;stroke-width:8;stroke-linecap:round;stroke-linejoin:miter;stroke:rgb(0%,0%,0%);stroke-opacity:1;stroke-miterlimit:4;" d="M 277.836985 321.284813 C 277.836985 356.462478 249.340735 384.942993 214.209329 384.942993 C 179.077923 384.942993 150.581673 356.462478 150.581673 321.284813 C 150.581673 286.142396 179.077923 257.661881 214.209329 257.661881 C 249.340735 257.661881 277.836985 286.142396 277.836985 321.284813 Z M 277.836985 321.284813 " transform="matrix(0.111857,0,0,0.110821,1.011881,1.121336)"/>
<path style="fill-rule:nonzero;fill:rgb(50.196078%,89.803922%,100%);fill-opacity:1;stroke-width:12.293;stroke-linecap:round;stroke-linejoin:miter;stroke:rgb(0%,0%,0%);stroke-opacity:1;stroke-miterlimit:4;" d="M 255.626673 321.284813 C 255.626673 344.16087 237.083157 362.701403 214.209329 362.701403 C 191.335501 362.701403 172.791985 344.16087 172.791985 321.284813 C 172.791985 298.444004 191.335501 279.868223 214.209329 279.868223 C 237.083157 279.868223 255.626673 298.444004 255.626673 321.284813 Z M 255.626673 321.284813 " transform="matrix(0.111857,0,0,0.110821,1.011881,1.121336)"/>
<path style="fill:none;stroke-width:10;stroke-linecap:butt;stroke-linejoin:miter;stroke:rgb(0%,0%,0%);stroke-opacity:1;stroke-miterlimit:4;" d="M 101.516438 573.555907 L 325.749798 573.555907 " transform="matrix(0.111857,0,0,0.110821,1.011881,1.121336)"/>
<path style="fill-rule:nonzero;fill:rgb(100%,0%,0%);fill-opacity:1;stroke-width:10;stroke-linecap:round;stroke-linejoin:miter;stroke:rgb(0%,0%,0%);stroke-opacity:1;stroke-miterlimit:4;" d="M 205.129641 468.516385 L 223.289016 468.516385 L 223.289016 741.26666 L 205.129641 741.26666 Z M 205.129641 468.516385 " transform="matrix(0.111857,0,0,0.110821,1.011881,1.121336)"/>
<path style=" stroke:none;fill-rule:evenodd;fill:rgb(80%,80%,80%);fill-opacity:1;" d="M 36.320312 63.230469 C 36.320312 63.230469 45.359375 42.632812 38.128906 22.816406 C 38.464844 57.96875 28.75 63.230469 28.75 63.230469 Z M 36.320312 63.230469 "/>
<path style=" stroke:none;fill-rule:nonzero;fill:rgb(100%,100%,100%);fill-opacity:1;" d="M 26.929688 32.003906 L 29.644531 34.71875 L 23.054688 41.308594 L 20.339844 38.59375 Z M 26.929688 32.003906 "/>
<path style="fill:none;stroke-width:12.293;stroke-linecap:round;stroke-linejoin:miter;stroke:rgb(0%,0%,0%);stroke-opacity:1;stroke-miterlimit:4;" d="M 255.626673 321.284813 C 255.626673 344.16087 237.083157 362.701403 214.209329 362.701403 C 191.335501 362.701403 172.791985 344.16087 172.791985 321.284813 C 172.791985 298.444004 191.335501 279.868223 214.209329 279.868223 C 237.083157 279.868223 255.626673 298.444004 255.626673 321.284813 Z M 255.626673 321.284813 " transform="matrix(0.111857,0,0,0.110821,1.011881,1.121336)"/>
<path style=" stroke:none;fill-rule:evenodd;fill:rgb(82.352941%,0%,0%);fill-opacity:1;" d="M 35.300781 18.117188 C 35.300781 18.117188 31.800781 9.046875 25.132812 4.234375 C 31.234375 15.878906 28.070312 18.117188 28.070312 18.117188 Z M 35.300781 18.117188 "/>
<path style="fill:none;stroke-width:10;stroke-linecap:butt;stroke-linejoin:miter;stroke:rgb(0%,0%,0%);stroke-opacity:1;stroke-miterlimit:4;" d="M 359.554173 470.52553 C 359.554173 470.52553 466.624641 469.221348 401.984251 741.26666 C 401.984251 741.26666 395.907845 514.092258 339.334407 542.114546 " transform="matrix(0.111857,0,0,0.110821,1.011881,1.121336)"/>
<path style="fill:none;stroke-width:10;stroke-linecap:butt;stroke-linejoin:miter;stroke:rgb(0%,0%,0%);stroke-opacity:1;stroke-miterlimit:4;" d="M 69.178782 470.52553 C 69.178782 470.52553 -37.891687 469.221348 26.748704 741.26666 C 26.748704 741.26666 32.82511 514.092258 89.363626 542.114546 " transform="matrix(0.111857,0,0,0.110821,1.011881,1.121336)"/>
<path style=" stroke:none;fill-rule:evenodd;fill:rgb(100%,100%,100%);fill-opacity:1;" d="M 13.042969 17.78125 C 13.042969 17.78125 19.03125 6.25 24.003906 3.226562 C 28.976562 0.203125 13.15625 18.003906 13.042969 17.78125 Z M 13.042969 17.78125 "/>
<path style=" stroke:none;fill-rule:evenodd;fill:rgb(100%,100%,100%);fill-opacity:1;" d="M 9.515625 48.417969 C 9.164062 48.226562 6.972656 32.246094 12.390625 22.296875 C 15.734375 19.632812 20.277344 21.035156 20.0625 22.140625 C 18.191406 31.710938 11.621094 49.578125 9.515625 48.421875 Z M 9.515625 48.417969 "/>
<path style="fill-rule:nonzero;fill:rgb(49.803922%,49.803922%,49.803922%);fill-opacity:1;stroke-width:5;stroke-linecap:butt;stroke-linejoin:miter;stroke:rgb(0%,0%,0%);stroke-opacity:1;stroke-miterlimit:4;" d="M 202.363053 464.744831 L 223.3511 464.744831 L 223.3511 630.728425 L 202.363053 630.728425 Z M 202.363053 464.744831 " transform="matrix(0.111857,0,0,0.110821,1.165093,1.121336)"/>
<path style="fill-rule:nonzero;fill:rgb(100%,100%,100%);fill-opacity:1;stroke-width:5;stroke-linecap:butt;stroke-linejoin:miter;stroke:rgb(0%,0%,0%);stroke-opacity:1;stroke-miterlimit:4;" d="M 201.455085 634.746715 L 223.455866 634.746715 L 223.455866 744.756228 L 201.455085 744.756228 Z M 201.455085 634.746715 " transform="matrix(0.111857,0,0,0.110821,1.165093,1.121336)"/>
<path style="fill-rule:nonzero;fill:rgb(49.803922%,49.803922%,49.803922%);fill-opacity:1;stroke-width:10.232368;stroke-linecap:round;stroke-linejoin:miter;stroke:rgb(0%,0%,0%);stroke-opacity:1;stroke-miterlimit:4;" d="M 104.721491 416.736835 L 320.433913 416.736835 L 320.433913 566.753011 L 104.721491 566.753011 Z M 104.721491 416.736835 " transform="matrix(0.111857,0,0,0.110821,1.165093,1.121336)"/>
<path style="fill:none;stroke-width:10;stroke-linecap:round;stroke-linejoin:miter;stroke:rgb(0%,0%,0%);stroke-opacity:1;stroke-miterlimit:4;" d="M 149.351647 632.73757 L 125.360319 740.737938 " transform="matrix(0.111857,0,0,0.110821,1.165093,1.121336)"/>
<path style="fill:none;stroke-width:10;stroke-linecap:round;stroke-linejoin:miter;stroke:rgb(0%,0%,0%);stroke-opacity:1;stroke-miterlimit:4;" d="M 279.365788 633.724519 L 303.357116 740.737938 " transform="matrix(0.111857,0,0,0.110821,1.165093,1.121336)"/>
<path style="fill:none;stroke-width:10;stroke-linecap:round;stroke-linejoin:miter;stroke:rgb(0%,0%,0%);stroke-opacity:1;stroke-miterlimit:4;" d="M 125.360319 741.724886 L 301.366569 741.724886 " transform="matrix(0.111857,0,0,0.110821,1.165093,1.121336)"/>
<path style="fill:none;stroke-width:10;stroke-linecap:round;stroke-linejoin:miter;stroke:rgb(0%,0%,0%);stroke-opacity:1;stroke-miterlimit:4;" d="M 149.351647 631.750622 L 149.351647 630.728425 " transform="matrix(0.111857,0,0,0.110821,1.165093,1.121336)"/>
<path style="fill:none;stroke-width:10;stroke-linecap:round;stroke-linejoin:miter;stroke:rgb(0%,0%,0%);stroke-opacity:1;stroke-miterlimit:4;" d="M 152.354928 633.724519 L 274.37196 634.746715 " transform="matrix(0.111857,0,0,0.110821,1.165093,1.121336)"/>
<path style="fill:none;stroke-width:10;stroke-linecap:round;stroke-linejoin:miter;stroke:rgb(0%,0%,0%);stroke-opacity:1;stroke-miterlimit:4;" d="M 146.348366 652.723278 L 278.353053 653.745475 " transform="matrix(0.111857,0,0,0.110821,1.165093,1.121336)"/>
<path style="fill:none;stroke-width:10;stroke-linecap:round;stroke-linejoin:miter;stroke:rgb(0%,0%,0%);stroke-opacity:1;stroke-miterlimit:4;" d="M 146.348366 668.725943 L 281.356335 669.74814 " transform="matrix(0.111857,0,0,0.110821,1.165093,1.121336)"/>
<path style="fill:none;stroke-width:10;stroke-linecap:round;stroke-linejoin:miter;stroke:rgb(0%,0%,0%);stroke-opacity:1;stroke-miterlimit:4;" d="M 142.367272 682.754712 L 286.350163 682.754712 " transform="matrix(0.111857,0,0,0.110821,1.165093,1.121336)"/>
<path style="fill:none;stroke-width:10;stroke-linecap:round;stroke-linejoin:miter;stroke:rgb(0%,0%,0%);stroke-opacity:1;stroke-miterlimit:4;" d="M 136.36071 696.748232 L 289.353444 697.735181 " transform="matrix(0.111857,0,0,0.110821,1.165093,1.121336)"/>
<path style="fill:none;stroke-width:10;stroke-linecap:round;stroke-linejoin:miter;stroke:rgb(0%,0%,0%);stroke-opacity:1;stroke-miterlimit:4;" d="M 134.370163 708.732607 L 292.356725 709.754804 " transform="matrix(0.111857,0,0,0.110821,1.165093,1.121336)"/>
<path style="fill:none;stroke-width:10;stroke-linecap:round;stroke-linejoin:miter;stroke:rgb(0%,0%,0%);stroke-opacity:1;stroke-miterlimit:4;" d="M 130.354147 720.75223 L 297.350553 721.739179 " transform="matrix(0.111857,0,0,0.110821,1.165093,1.121336)"/>
<path style="fill:none;stroke-width:10;stroke-linecap:round;stroke-linejoin:miter;stroke:rgb(0%,0%,0%);stroke-opacity:1;stroke-miterlimit:4;" d="M 129.376335 730.72746 L 298.363288 730.72746 " transform="matrix(0.111857,0,0,0.110821,1.165093,1.121336)"/>
<path style="fill:none;stroke-width:10;stroke-linecap:round;stroke-linejoin:miter;stroke:rgb(0%,0%,0%);stroke-opacity:1;stroke-miterlimit:4;" d="M 129.376335 737.741844 L 299.376022 736.754896 " transform="matrix(0.111857,0,0,0.110821,1.165093,1.121336)"/>
</g>
</svg>
